<?xml version="1.0" encoding="UTF-8"?>
<svg width="512" height="512" viewBox="0 0 512 512" fill="none" xmlns="http://www.w3.org/2000/svg">
    <!-- Background Circle -->
    <circle cx="256" cy="256" r="256" fill="#E2E8F0"/>
    
    <!-- Person Silhouette -->
    <path fill-rule="evenodd" clip-rule="evenodd" d="M256 288C309.019 288 352 245.019 352 192C352 138.981 309.019 96 256 96C202.981 96 160 138.981 160 192C160 245.019 202.981 288 256 288ZM256 512C362.039 512 448 426.039 448 320C448 276.109 433.618 235.718 408.638 202.277C397.387 244.023 360.892 276.706 316.203 285.691C297.697 293.768 277.39 298 256 298C234.61 298 214.303 293.768 195.797 285.691C151.108 276.706 114.613 244.023 103.362 202.277C78.3815 235.718 64 276.109 64 320C64 426.039 149.961 512 256 512Z" fill="#94A3B8"/>
</svg>
